<svg width="16" height="16" viewBox="0 0 16 16" fill="none" xmlns="http://www.w3.org/2000/svg">
<g id="icon">
<path id="Vector" d="M14.1762 8.20524L8.47031 1.86539C8.23003 1.59785 7.76849 1.59785 7.52821 1.86539L1.82235 8.20524C1.74022 8.29627 1.68631 8.40921 1.66718 8.53032C1.64804 8.65142 1.66451 8.77548 1.71457 8.8874C1.81601 9.11627 2.04297 9.26335 2.2934 9.26335H3.56137V13.7012C3.56137 13.8694 3.62816 14.0306 3.74706 14.1495C3.86595 14.2684 4.02721 14.3352 4.19535 14.3352H6.0973C6.26545 14.3352 6.4267 14.2684 6.5456 14.1495C6.66449 14.0306 6.73129 13.8694 6.73129 13.7012V11.1653H9.26723V13.7012C9.26723 13.8694 9.33402 14.0306 9.45292 14.1495C9.57181 14.2684 9.73307 14.3352 9.90121 14.3352H11.8032C11.9713 14.3352 12.1326 14.2684 12.2515 14.1495C12.3704 14.0306 12.4372 13.8694 12.4372 13.7012V9.26335H13.7051C13.8279 9.26388 13.9482 9.22866 14.0513 9.16201C14.1544 9.09535 14.2359 9.00014 14.2858 8.88797C14.3358 8.7758 14.352 8.65152 14.3325 8.53029C14.313 8.40907 14.2587 8.29612 14.1762 8.20524Z" fill="black"/>
</g>
</svg>
