<svg width="20" height="20" viewBox="0 0 20 20" fill="none" xmlns="http://www.w3.org/2000/svg">
<g id="solid-icon">
<path id="Vector" d="M3.83899 10.7701H8.45986C8.88344 10.7701 9.23001 10.4235 9.23001 9.99991V3.83875C9.23001 3.41517 8.88344 3.0686 8.45986 3.0686H3.83899C3.41541 3.0686 3.06885 3.41517 3.06885 3.83875V9.99991C3.06885 10.4235 3.41541 10.7701 3.83899 10.7701ZM3.83899 16.9312H8.45986C8.88344 16.9312 9.23001 16.5846 9.23001 16.1611V13.0805C9.23001 12.6569 8.88344 12.3103 8.45986 12.3103H3.83899C3.41541 12.3103 3.06885 12.6569 3.06885 13.0805V16.1611C3.06885 16.5846 3.41541 16.9312 3.83899 16.9312ZM11.5404 16.9312H16.1613C16.5849 16.9312 16.9315 16.5846 16.9315 16.1611V9.99991C16.9315 9.57633 16.5849 9.22976 16.1613 9.22976H11.5404C11.1169 9.22976 10.7703 9.57633 10.7703 9.99991V16.1611C10.7703 16.5846 11.1169 16.9312 11.5404 16.9312ZM10.7703 3.83875V6.91933C10.7703 7.34291 11.1169 7.68947 11.5404 7.68947H16.1613C16.5849 7.68947 16.9315 7.34291 16.9315 6.91933V3.83875C16.9315 3.41517 16.5849 3.0686 16.1613 3.0686H11.5404C11.1169 3.0686 10.7703 3.41517 10.7703 3.83875Z" fill="#334158"/>
</g>
</svg>
