<svg width="16" height="16" viewBox="0 0 16 16" fill="none" xmlns="http://www.w3.org/2000/svg">
<g id="copy-03" clip-path="url(#clip0_1872_4437)">
<path id="Icon" d="M5.33337 5.33325V3.46659C5.33337 2.71985 5.33337 2.34648 5.4787 2.06126C5.60653 1.81038 5.8105 1.60641 6.06139 1.47858C6.3466 1.33325 6.71997 1.33325 7.46671 1.33325H12.5334C13.2801 1.33325 13.6535 1.33325 13.9387 1.47858C14.1896 1.60641 14.3936 1.81038 14.5214 2.06126C14.6667 2.34648 14.6667 2.71985 14.6667 3.46659V8.53325C14.6667 9.27999 14.6667 9.65336 14.5214 9.93857C14.3936 10.1895 14.1896 10.3934 13.9387 10.5213C13.6535 10.6666 13.2801 10.6666 12.5334 10.6666H10.6667M3.46671 14.6666H8.53337C9.28011 14.6666 9.65348 14.6666 9.93869 14.5213C10.1896 14.3934 10.3936 14.1895 10.5214 13.9386C10.6667 13.6534 10.6667 13.28 10.6667 12.5333V7.46658C10.6667 6.71985 10.6667 6.34648 10.5214 6.06126C10.3936 5.81038 10.1896 5.60641 9.93869 5.47858C9.65348 5.33325 9.28011 5.33325 8.53337 5.33325H3.46671C2.71997 5.33325 2.3466 5.33325 2.06139 5.47858C1.8105 5.60641 1.60653 5.81038 1.4787 6.06126C1.33337 6.34648 1.33337 6.71985 1.33337 7.46658V12.5333C1.33337 13.28 1.33337 13.6534 1.4787 13.9386C1.60653 14.1895 1.8105 14.3934 2.06139 14.5213C2.3466 14.6666 2.71997 14.6666 3.46671 14.6666Z" stroke="#005FF9" stroke-width="1.33333" stroke-linecap="round" stroke-linejoin="round"/>
</g>
<defs>
<clipPath id="clip0_1872_4437">
<rect width="16" height="16" fill="white"/>
</clipPath>
</defs>
</svg>
