<svg width="16" height="16" viewBox="0 0 16 16" fill="none" xmlns="http://www.w3.org/2000/svg">
<g id="solid-icon">
<path id="Vector" d="M3.07119 8.61612H6.76789C7.10675 8.61612 7.38401 8.33886 7.38401 8V3.07107C7.38401 2.73221 7.10675 2.45496 6.76789 2.45496H3.07119C2.73233 2.45496 2.45508 2.73221 2.45508 3.07107V8C2.45508 8.33886 2.73233 8.61612 3.07119 8.61612ZM3.07119 13.545H6.76789C7.10675 13.545 7.38401 13.2678 7.38401 12.9289V10.4645C7.38401 10.1256 7.10675 9.84835 6.76789 9.84835H3.07119C2.73233 9.84835 2.45508 10.1256 2.45508 10.4645V12.9289C2.45508 13.2678 2.73233 13.545 3.07119 13.545ZM9.23235 13.545H12.929C13.2679 13.545 13.5452 13.2678 13.5452 12.9289V8C13.5452 7.66114 13.2679 7.38388 12.929 7.38388H9.23235C8.89349 7.38388 8.61624 7.66114 8.61624 8V12.9289C8.61624 13.2678 8.89349 13.545 9.23235 13.545ZM8.61624 3.07107V5.53554C8.61624 5.8744 8.89349 6.15165 9.23235 6.15165H12.929C13.2679 6.15165 13.5452 5.8744 13.5452 5.53554V3.07107C13.5452 2.73221 13.2679 2.45496 12.929 2.45496H9.23235C8.89349 2.45496 8.61624 2.73221 8.61624 3.07107Z" fill="black"/>
</g>
</svg>
