<svg width="20" height="20" viewBox="0 0 20 20" fill="none" xmlns="http://www.w3.org/2000/svg">
<g id="solid-icon">
<rect width="20" height="20" rx="1" fill="#FFE3E7"/>
<path id="Vector" d="M7.09842 2.46948L6.86317 2.92136H3.72638C3.14804 2.92136 2.68079 3.37324 2.68079 3.93256C2.68079 4.49188 3.14804 4.94376 3.72638 4.94376H16.2735C16.8519 4.94376 17.3191 4.49188 17.3191 3.93256C17.3191 3.37324 16.8519 2.92136 16.2735 2.92136H13.1367L12.9015 2.46948C12.725 2.12504 12.3623 1.91016 11.967 1.91016H8.03293C7.63756 1.91016 7.27487 2.12504 7.09842 2.46948ZM16.2735 5.95496H3.72638L4.41909 16.6674C4.47137 17.4668 5.15754 18.0894 5.98421 18.0894H14.0157C14.8424 18.0894 15.5285 17.4668 15.5808 16.6674L16.2735 5.95496Z" fill="#F4485D"/>
</g>
</svg>
