<svg width="16" height="16" viewBox="0 0 16 16" fill="none" xmlns="http://www.w3.org/2000/svg">
<g id="solid-icon">
<path id="Vector" d="M7.99991 1.56604C8.85311 1.56604 9.67136 1.90497 10.2747 2.50828C10.878 3.11158 11.2169 3.92984 11.2169 4.78304C11.2169 5.63624 10.878 6.45449 10.2747 7.05779C9.67136 7.6611 8.85311 8.00003 7.99991 8.00003C7.14671 8.00003 6.32845 7.6611 5.72515 7.05779C5.12185 6.45449 4.78291 5.63624 4.78291 4.78304C4.78291 3.92984 5.12185 3.11158 5.72515 2.50828C6.32845 1.90497 7.14671 1.56604 7.99991 1.56604ZM7.99991 9.60853C11.5547 9.60853 14.4339 11.0481 14.4339 12.8255V14.434H1.56592V12.8255C1.56592 11.0481 4.44513 9.60853 7.99991 9.60853Z" fill="black"/>
</g>
</svg>
