<svg width="20" height="20" viewBox="0 0 20 20" fill="none" xmlns="http://www.w3.org/2000/svg">
<g id="solid-icon">
<path id="Vector" d="M17.7202 10.2567L10.5878 2.33187C10.2875 1.99745 9.71055 1.99745 9.4102 2.33187L2.27787 10.2567C2.17521 10.3705 2.10783 10.5116 2.08391 10.663C2.05999 10.8144 2.08057 10.9695 2.14315 11.1094C2.26995 11.3955 2.55366 11.5793 2.86669 11.5793H4.45165V17.1267C4.45165 17.3369 4.53514 17.5384 4.68376 17.6871C4.83238 17.8357 5.03395 17.9192 5.24413 17.9192H7.62157C7.83175 17.9192 8.03332 17.8357 8.18194 17.6871C8.33056 17.5384 8.41405 17.3369 8.41405 17.1267V13.9568H11.584V17.1267C11.584 17.3369 11.6675 17.5384 11.8161 17.6871C11.9647 17.8357 12.1663 17.9192 12.3765 17.9192H14.7539C14.9641 17.9192 15.1656 17.8357 15.3143 17.6871C15.4629 17.5384 15.5464 17.3369 15.5464 17.1267V11.5793H17.1313C17.2848 11.58 17.4352 11.536 17.5641 11.4526C17.693 11.3693 17.7948 11.2503 17.8572 11.1101C17.9197 10.9699 17.9399 10.8145 17.9156 10.663C17.8912 10.5115 17.8233 10.3703 17.7202 10.2567Z" fill="#333333"/>
</g>
</svg>
