<svg width="20" height="20" viewBox="0 0 20 20" fill="none" xmlns="http://www.w3.org/2000/svg">
<g id="solid-icon">
<path id="Vector" fill-rule="evenodd" clip-rule="evenodd" d="M6.13308 2.41113C5.68585 2.41123 5.25697 2.58897 4.94077 2.90526L2.90526 4.94077C2.67421 5.17158 2.51515 5.46451 2.44739 5.78399H17.5527C17.485 5.46451 17.3259 5.17158 17.0949 4.94077L15.0593 2.90526C14.7431 2.58897 14.3143 2.41123 13.867 2.41113H6.13308ZM17.589 7.47041H2.41113V15.9025C2.41113 16.3498 2.58881 16.7788 2.90508 17.095C3.22134 17.4113 3.65029 17.589 4.09756 17.589H15.9025C16.3498 17.589 16.7788 17.4113 17.095 17.095C17.4113 16.7788 17.589 16.3498 17.589 15.9025V7.47041ZM10.0001 9.15684C10.2237 9.15684 10.4382 9.24568 10.5963 9.40381C10.7544 9.56194 10.8433 9.77642 10.8433 10.0001V12.6865L11.1924 12.3366C11.3506 12.1785 11.5651 12.0897 11.7888 12.0898C12.0125 12.0899 12.227 12.1788 12.3851 12.337C12.5432 12.4952 12.632 12.7098 12.6319 12.9335C12.6318 13.1571 12.5429 13.3716 12.3847 13.5297L10.597 15.3182C10.5187 15.3966 10.4257 15.4588 10.3234 15.5012C10.221 15.5437 10.1113 15.5655 10.0005 15.5655C9.88966 15.5655 9.77994 15.5437 9.67757 15.5012C9.57521 15.4588 9.48221 15.3966 9.4039 15.3182L7.61545 13.5297C7.45722 13.3716 7.36829 13.1571 7.36821 12.9335C7.36813 12.7098 7.45691 12.4952 7.61502 12.337C7.77313 12.1788 7.98762 12.0899 8.2113 12.0898C8.43498 12.0897 8.64953 12.1785 8.80775 12.3366L9.15684 12.6865V10.0001C9.15684 9.77642 9.24568 9.56194 9.40381 9.40381C9.56194 9.24568 9.77642 9.15684 10.0001 9.15684Z" fill="#334158"/>
</g>
</svg>
