<svg width="16" height="16" viewBox="0 0 16 16" fill="none" xmlns="http://www.w3.org/2000/svg">
<g id="icon/account">
<path id="user" d="M14.9648 13.0573C14.5856 12.1591 14.0354 11.3433 13.3447 10.6553C12.6561 9.96524 11.8404 9.41508 10.9427 9.03518C10.9347 9.03116 10.9266 9.02915 10.9186 9.02513C12.1708 8.1206 12.9849 6.64724 12.9849 4.98492C12.9849 2.23116 10.7537 0 7.99998 0C5.24621 0 3.01505 2.23116 3.01505 4.98492C3.01505 6.64724 3.82912 8.1206 5.08138 9.02713C5.07334 9.03116 5.0653 9.03316 5.05726 9.03719C4.15676 9.41708 3.34872 9.96181 2.65525 10.6573C1.96522 11.3459 1.41506 12.1615 1.03515 13.0593C0.661932 13.9382 0.460645 14.8805 0.442189 15.8352C0.441652 15.8566 0.445415 15.878 0.453256 15.8979C0.461097 15.9179 0.472856 15.9361 0.487842 15.9515C0.502828 15.9669 0.520737 15.9791 0.540513 15.9874C0.560289 15.9957 0.581533 16 0.602993 16H1.80902C1.89747 16 1.96782 15.9296 1.96983 15.8432C2.01003 14.2915 2.63314 12.8382 3.73465 11.7367C4.87435 10.597 6.38792 9.96985 7.99998 9.96985C9.61204 9.96985 11.1256 10.597 12.2653 11.7367C13.3668 12.8382 13.9899 14.2915 14.0301 15.8432C14.0321 15.9317 14.1025 16 14.1909 16H15.397C15.4184 16 15.4397 15.9957 15.4594 15.9874C15.4792 15.9791 15.4971 15.9669 15.5121 15.9515C15.5271 15.9361 15.5389 15.9179 15.5467 15.8979C15.5545 15.878 15.5583 15.8566 15.5578 15.8352C15.5377 14.8744 15.3387 13.9397 14.9648 13.0573ZM7.99998 8.44221C7.07736 8.44221 6.20902 8.08241 5.55576 7.42915C4.90249 6.77588 4.54269 5.90754 4.54269 4.98492C4.54269 4.06231 4.90249 3.19397 5.55576 2.5407C6.20902 1.88744 7.07736 1.52764 7.99998 1.52764C8.92259 1.52764 9.79093 1.88744 10.4442 2.5407C11.0975 3.19397 11.4573 4.06231 11.4573 4.98492C11.4573 5.90754 11.0975 6.77588 10.4442 7.42915C9.79093 8.08241 8.92259 8.44221 7.99998 8.44221Z" fill="#7E7E7E" fill-opacity="0.7"/>
</g>
</svg>
