<svg width="33" height="32" viewBox="0 0 33 32" fill="none" xmlns="http://www.w3.org/2000/svg">
<g id="facebook">
<g id="Group">
<path id="Vector" d="M22.618 0.213372C22.5508 0.13831 20.1311 0.243002 18.0254 2.52844C15.9197 4.8119 16.2437 7.43117 16.2911 7.49833C16.3385 7.56549 19.2935 7.67018 21.18 5.01338C23.0664 2.35659 22.6852 0.290409 22.618 0.213372ZM29.1642 23.3897C29.0694 23.2001 24.5716 20.9522 24.9904 16.6302C25.4091 12.3062 28.299 11.1211 28.3444 10.9927C28.3899 10.8643 27.1652 9.43216 25.8674 8.70722C24.9145 8.19611 23.8599 7.90328 22.78 7.84993C22.5666 7.84401 21.8259 7.66228 20.3029 8.07907C19.2995 8.35364 17.0377 9.24253 16.4155 9.27808C15.7913 9.31364 13.9345 8.24697 11.9375 7.9645C10.6595 7.71759 9.30439 8.22327 8.33451 8.6124C7.36661 8.99957 5.52561 10.1018 4.23771 13.0312C2.94981 15.9586 3.62339 20.5966 4.10536 22.0386C4.58734 23.4786 5.33994 25.8391 6.61994 27.5616C7.75772 29.5053 9.26686 30.8544 9.89698 31.3127C10.5271 31.771 12.3049 32.0752 13.5375 31.445C14.5291 30.8367 16.3187 30.487 17.0259 30.5127C17.7311 30.5384 19.1217 30.8169 20.5459 31.5774C21.6738 31.9665 22.7405 31.8046 23.8091 31.37C24.8778 30.9334 26.4244 29.2781 28.2299 25.9221C28.9153 24.3616 29.2274 23.5181 29.1642 23.3897Z" fill="black"/>
<path id="Vector_2" d="M22.618 0.213372C22.5508 0.13831 20.1311 0.243002 18.0254 2.52844C15.9197 4.8119 16.2437 7.43117 16.2911 7.49833C16.3385 7.56549 19.2935 7.67018 21.18 5.01338C23.0664 2.35659 22.6852 0.290409 22.618 0.213372ZM29.1642 23.3897C29.0694 23.2001 24.5716 20.9522 24.9904 16.6302C25.4091 12.3062 28.299 11.1211 28.3444 10.9927C28.3899 10.8643 27.1652 9.43216 25.8674 8.70722C24.9145 8.19611 23.8599 7.90328 22.78 7.84993C22.5666 7.84401 21.8259 7.66228 20.3029 8.07907C19.2995 8.35364 17.0377 9.24253 16.4155 9.27808C15.7913 9.31364 13.9345 8.24697 11.9375 7.9645C10.6595 7.71759 9.30439 8.22327 8.33451 8.6124C7.36661 8.99957 5.52561 10.1018 4.23771 13.0312C2.94981 15.9586 3.62339 20.5966 4.10536 22.0386C4.58734 23.4786 5.33994 25.8391 6.61994 27.5616C7.75772 29.5053 9.26686 30.8544 9.89698 31.3127C10.5271 31.771 12.3049 32.0752 13.5375 31.445C14.5291 30.8367 16.3187 30.487 17.0259 30.5127C17.7311 30.5384 19.1217 30.8169 20.5459 31.5774C21.6738 31.9665 22.7405 31.8046 23.8091 31.37C24.8778 30.9334 26.4244 29.2781 28.2299 25.9221C28.9153 24.3616 29.2274 23.5181 29.1642 23.3897Z" fill="black"/>
</g>
</g>
</svg>
