<svg width="32" height="32" viewBox="0 0 32 32" fill="none" xmlns="http://www.w3.org/2000/svg">
<g id="social-icon/fb">
<g id="facebook-2020-1-1">
<path id="Path" fill-rule="evenodd" clip-rule="evenodd" d="M16 0C24.8365 0 32 7.16346 32 16C32 24.8365 24.8365 32 16 32C7.16346 32 0 24.8365 0 16C0 7.16346 7.16346 0 16 0Z" fill="#0075FF"/>
<path id="Path_2" d="M18.079 31.8657V19.507H21.5632L22.025 15.1573H18.079L18.0849 12.9801C18.0849 11.8456 18.1927 11.238 19.8222 11.238H22.0006V6.88762H18.5157C14.3296 6.88762 12.8565 8.99757 12.8565 12.5464V15.1577H10.2471V19.5077H12.8565V31.6905C13.8731 31.893 14.924 32 16.0001 32C16.6953 32 17.3897 31.9552 18.079 31.8657Z" fill="white"/>
</g>
</g>
</svg>
