<svg width="33" height="32" viewBox="0 0 33 32" fill="none" xmlns="http://www.w3.org/2000/svg">
<g id="search">
<path id="Path" d="M7.75862 19.338L6.64475 23.4963L2.57356 23.5824C1.35687 21.3257 0.666748 18.7438 0.666748 16C0.666748 13.3468 1.312 10.8448 2.45575 8.64175H2.45662L6.08112 9.30625L7.66887 12.909C7.33656 13.8778 7.15544 14.9178 7.15544 16C7.15556 17.1745 7.36831 18.2998 7.75862 19.338Z" fill="#FBBB00"/>
<path id="Path_2" d="M32.3872 13.011C32.571 13.9789 32.6668 14.9784 32.6668 16C32.6668 17.1455 32.5464 18.2629 32.3169 19.3407C31.5381 23.0084 29.5029 26.211 26.6836 28.4774L26.6827 28.4765L22.1174 28.2436L21.4713 24.2101C23.3421 23.113 24.8041 21.3961 25.5742 19.3407H17.0186V13.011H25.699H32.3872Z" fill="#518EF8"/>
<path id="Path_3" d="M26.6825 28.4765L26.6834 28.4774C23.9414 30.6813 20.4583 32 16.6667 32C10.5735 32 5.27592 28.5943 2.57349 23.5824L7.75855 19.3381C9.10974 22.9442 12.5884 25.5112 16.6667 25.5112C18.4196 25.5112 20.0619 25.0374 21.471 24.2101L26.6825 28.4765Z" fill="#28B446"/>
<path id="Path_4" d="M26.8796 3.6835L21.6962 7.927C20.2378 7.01538 18.5138 6.48875 16.6668 6.48875C12.4962 6.48875 8.9525 9.17356 7.669 12.909L2.45669 8.64175H2.45581C5.11869 3.50769 10.4831 0 16.6668 0C20.549 0 24.1086 1.38287 26.8796 3.6835Z" fill="#F14336"/>
</g>
</svg>
