<svg width="16" height="16" viewBox="0 0 16 16" fill="none" xmlns="http://www.w3.org/2000/svg">
<g id="icon/password">
<path id="lock" d="M7.99988 0.0570374C5.81 0.0570374 4.0284 1.83864 4.0284 4.02852V6.41141H3.2341C2.35799 6.41141 1.64551 7.12389 1.64551 8V14.3544C1.64551 15.2305 2.35799 15.943 3.2341 15.943H12.7657C13.6418 15.943 14.3542 15.2305 14.3542 14.3544V8C14.3542 7.12389 13.6418 6.41141 12.7657 6.41141H11.9714V4.02852C11.9714 1.83864 10.1898 0.0570374 7.99988 0.0570374ZM12.7657 8L12.7672 14.3544H3.2341V8H12.7657ZM5.61699 6.41141V4.02852C5.61699 2.71475 6.68611 1.64563 7.99988 1.64563C9.31364 1.64563 10.3828 2.71475 10.3828 4.02852V6.41141H5.61699Z" fill="#7E7E7E" fill-opacity="0.7"/>
</g>
</svg>
